<?xml version="1.0" encoding="UTF-8"?>
<svg xmlns="http://www.w3.org/2000/svg" xmlns:xlink="http://www.w3.org/1999/xlink" width="100pt" height="100pt" viewBox="0 0 100 100" version="1.1">
<g id="surface1">
<rect x="0" y="0" width="100" height="100" style="fill:rgb(98%,92%,84%);fill-opacity:1;stroke:none;"/>
<path style=" stroke:none;fill-rule:nonzero;fill:rgb(6%,30%,55%);fill-opacity:1;" d="M 55 50 L 55.300781 50 C 55.300781 50.339844 54.824219 50.417969 54.714844 50.097656 C 54.605469 49.777344 55.03125 49.546875 55.238281 49.816406 C 55.445312 50.085938 55.117188 50.4375 54.835938 50.25 C 54.550781 50.0625 54.746094 49.625 55.074219 49.710938 C 55.402344 49.796875 55.359375 50.273438 55.023438 50.300781 C 54.683594 50.324219 54.570312 49.855469 54.882812 49.722656 C 55.195312 49.589844 55.453125 49.996094 55.199219 50.222656 C 54.949219 50.449219 54.574219 50.148438 54.738281 49.855469 C 54.902344 49.558594 55.355469 49.71875 55.296875 50.054688 C 55.234375 50.386719 54.753906 50.378906 54.703125 50.042969 C 54.652344 49.710938 55.109375 49.5625 55.265625 49.863281 C 55.421875 50.164062 55.039062 50.449219 54.792969 50.214844 C 54.546875 49.980469 54.820312 49.585938 55.125 49.726562 C 55.433594 49.871094 55.304688 50.332031 54.96875 50.296875 C 54.632812 50.261719 54.601562 49.78125 54.933594 49.707031 C 55.265625 49.632812 55.445312 50.078125 55.15625 50.253906 C 54.867188 50.433594 54.554688 50.070312 54.769531 49.808594 C 54.984375 49.546875 55.398438 49.789062 55.28125 50.105469 C 55.160156 50.421875 54.691406 50.328125 54.699219 49.992188 C 54.710938 49.652344 55.1875 49.585938 55.285156 49.910156 C 55.386719 50.234375 54.957031 50.449219 54.757812 50.175781 C 54.558594 49.902344 54.894531 49.558594 55.171875 49.753906 C 55.449219 49.949219 55.242188 50.382812 54.914062 50.289062 C 54.589844 50.191406 54.648438 49.714844 54.988281 49.699219 C 55.324219 49.683594 55.425781 50.15625 55.109375 50.28125 C 54.792969 50.402344 54.546875 49.988281 54.804688 49.769531 C 55.066406 49.550781 55.429688 49.863281 55.257812 50.152344 C 55.082031 50.445312 54.636719 50.269531 54.707031 49.9375 C 54.777344 49.605469 55.257812 49.628906 55.296875 49.964844 C 55.339844 50.300781 54.875 50.4375 54.730469 50.128906 C 54.582031 49.824219 54.976562 49.546875 55.214844 49.789062 C 55.453125 50.03125 55.167969 50.421875 54.867188 50.269531 C 54.5625 50.117188 54.703125 49.65625 55.039062 49.703125 C 55.375 49.75 55.390625 50.230469 55.058594 50.292969 C 54.726562 50.359375 54.554688 49.910156 54.851562 49.738281 C 55.144531 49.570312 55.449219 49.941406 55.226562 50.199219 C 55.003906 50.453125 54.59375 50.199219 54.722656 49.886719 C 54.851562 49.574219 55.320312 49.679688 55.300781 50.019531 C 55.277344 50.355469 54.800781 50.40625 54.710938 50.078125 C 54.621094 49.753906 55.058594 49.550781 55.25 49.832031 C 55.4375 50.113281 55.089844 50.445312 54.820312 50.238281 C 54.546875 50.035156 54.769531 49.609375 55.09375 49.714844 C 55.414062 49.820312 55.34375 50.296875 55.003906 50.300781 C 54.664062 50.304688 54.578125 49.832031 54.898438 49.71875 C 55.21875 49.601562 55.453125 50.023438 55.1875 50.234375 C 54.921875 50.445312 54.566406 50.125 54.746094 49.839844 C 54.929688 49.550781 55.371094 49.742188 55.292969 50.070312 C 55.210938 50.402344 54.730469 50.363281 54.703125 50.027344 C 54.671875 49.6875 55.136719 49.570312 55.273438 49.878906 C 55.410156 50.1875 55.011719 50.453125 54.78125 50.203125 C 54.550781 49.953125 54.84375 49.574219 55.140625 49.734375 C 55.441406 49.898438 55.285156 50.351562 54.949219 50.296875 C 54.617188 50.238281 54.617188 49.757812 54.953125 49.703125 C 55.285156 49.648438 55.441406 50.105469 55.140625 50.265625 C 54.84375 50.425781 54.550781 50.042969 54.78125 49.796875 C 55.011719 49.546875 55.414062 49.8125 55.273438 50.121094 C 55.136719 50.433594 54.671875 50.308594 54.703125 49.972656 C 54.730469 49.636719 55.210938 49.601562 55.292969 49.929688 C 55.371094 50.257812 54.929688 50.445312 54.746094 50.160156 C 54.566406 49.875 54.921875 49.554688 55.1875 49.765625 C 55.453125 49.976562 55.21875 50.398438 54.898438 50.28125 C 54.578125 50.167969 54.664062 49.695312 55.003906 49.699219 C 55.34375 49.707031 55.414062 50.179688 55.09375 50.285156 C 54.769531 50.390625 54.546875 49.960938 54.820312 49.757812 C 55.09375 49.558594 55.4375 49.890625 55.246094 50.167969 C 55.054688 50.449219 54.621094 50.246094 54.710938 49.917969 C 54.800781 49.59375 55.28125 49.644531 55.300781 49.984375 C 55.320312 50.320312 54.851562 50.425781 54.722656 50.113281 C 54.59375 49.800781 55.003906 49.546875 55.226562 49.804688 C 55.449219 50.058594 55.144531 50.429688 54.847656 50.257812 C 54.554688 50.089844 54.726562 49.640625 55.058594 49.707031 C 55.390625 49.773438 55.375 50.253906 55.039062 50.296875 C 54.703125 50.34375 54.5625 49.882812 54.867188 49.730469 C 55.167969 49.582031 55.453125 49.96875 55.214844 50.210938 C 54.976562 50.453125 54.582031 50.175781 54.730469 49.871094 C 54.878906 49.5625 55.339844 49.699219 55.296875 50.035156 C 55.257812 50.371094 54.777344 50.394531 54.707031 50.0625 C 54.636719 49.730469 55.085938 49.554688 55.257812 49.847656 C 55.429688 50.136719 55.0625 50.449219 54.804688 50.226562 C 54.546875 50.007812 54.792969 49.597656 55.109375 49.722656 C 55.425781 49.84375 55.324219 50.316406 54.984375 50.300781 C 54.648438 50.285156 54.589844 49.804688 54.917969 49.710938 C 55.242188 49.617188 55.449219 50.050781 55.171875 50.246094 C 54.894531 50.441406 54.558594 50.097656 54.757812 49.824219 C 54.957031 49.550781 55.386719 49.765625 55.285156 50.089844 C 55.1875 50.414062 54.710938 50.347656 54.699219 50.007812 C 54.691406 49.667969 55.164062 49.578125 55.28125 49.894531 C 55.398438 50.214844 54.984375 50.453125 54.769531 50.191406 C 54.554688 49.925781 54.871094 49.566406 55.160156 49.746094 C 55.445312 49.925781 55.261719 50.367188 54.933594 50.292969 C 54.601562 50.214844 54.632812 49.734375 54.96875 49.703125 C 55.308594 49.667969 55.433594 50.128906 55.125 50.273438 C 54.816406 50.414062 54.546875 50.015625 54.792969 49.78125 C 55.039062 49.550781 55.421875 49.839844 55.265625 50.140625 C 55.109375 50.4375 54.652344 50.289062 54.703125 49.953125 C 54.753906 49.621094 55.234375 49.613281 55.296875 49.945312 C 55.355469 50.28125 54.902344 50.441406 54.738281 50.144531 C 54.574219 49.847656 54.949219 49.550781 55.203125 49.777344 C 55.453125 50.003906 55.191406 50.410156 54.882812 50.277344 C 54.570312 50.140625 54.683594 49.675781 55.023438 49.699219 C 55.359375 49.726562 55.402344 50.207031 55.074219 50.289062 C 54.746094 50.375 54.550781 49.933594 54.835938 49.75 C 55.117188 49.5625 55.445312 49.917969 55.238281 50.183594 C 55.027344 50.453125 54.605469 50.222656 54.714844 49.902344 C 54.828125 49.582031 55.300781 49.660156 55.300781 50 C 55.300781 50.339844 54.824219 50.417969 54.714844 50.097656 C 54.605469 49.773438 55.03125 49.546875 55.238281 49.816406 C 55.445312 50.085938 55.117188 50.4375 54.835938 50.25 C 54.550781 50.0625 54.75 49.625 55.078125 49.710938 C 55.402344 49.796875 55.359375 50.273438 55.023438 50.300781 C 54.683594 50.324219 54.570312 49.855469 54.882812 49.722656 C 55.195312 49.589844 55.453125 49.996094 55.199219 50.222656 C 54.949219 50.449219 54.574219 50.148438 54.738281 49.851562 C 54.90625 49.558594 55.355469 49.722656 55.296875 50.054688 C 55.234375 50.386719 54.753906 50.378906 54.703125 50.042969 C 54.652344 49.707031 55.113281 49.5625 55.265625 49.863281 C 55.421875 50.164062 55.035156 50.453125 54.792969 50.214844 C 54.546875 49.980469 54.820312 49.585938 55.128906 49.726562 C 55.433594 49.871094 55.304688 50.335938 54.96875 50.296875 C 54.628906 50.261719 54.601562 49.78125 54.933594 49.707031 C 55.265625 49.632812 55.445312 50.078125 55.15625 50.253906 C 54.867188 50.433594 54.550781 50.070312 54.769531 49.808594 C 54.984375 49.546875 55.402344 49.789062 55.28125 50.105469 C 55.160156 50.421875 54.6875 50.328125 54.699219 49.988281 C 54.710938 49.652344 55.1875 49.589844 55.285156 49.914062 C 55.386719 50.238281 54.957031 50.449219 54.757812 50.175781 C 54.558594 49.902344 54.898438 49.558594 55.171875 49.753906 C 55.449219 49.953125 55.238281 50.382812 54.914062 50.289062 "/>
<path style=" stroke:none;fill-rule:nonzero;fill:rgb(6%,30%,55%);fill-opacity:1;" d="M 51.546875 54.753906 L 51.84375 54.753906 C 51.84375 55.09375 51.371094 55.171875 51.261719 54.851562 C 51.152344 54.53125 51.574219 54.304688 51.78125 54.570312 C 51.988281 54.839844 51.664062 55.191406 51.378906 55.003906 C 51.097656 54.820312 51.292969 54.378906 51.621094 54.464844 C 51.949219 54.550781 51.90625 55.027344 51.566406 55.054688 C 51.230469 55.078125 51.117188 54.613281 51.425781 54.480469 C 51.738281 54.347656 51.996094 54.75 51.746094 54.976562 C 51.492188 55.207031 51.117188 54.90625 51.28125 54.609375 C 51.449219 54.3125 51.902344 54.476562 51.839844 54.808594 C 51.78125 55.140625 51.300781 55.136719 51.25 54.800781 C 51.199219 54.464844 51.65625 54.316406 51.8125 54.617188 C 51.96875 54.917969 51.582031 55.207031 51.335938 54.972656 C 51.09375 54.738281 51.363281 54.339844 51.671875 54.484375 C 51.980469 54.625 51.851562 55.089844 51.511719 55.054688 C 51.175781 55.019531 51.148438 54.539062 51.476562 54.460938 C 51.808594 54.386719 51.992188 54.832031 51.703125 55.011719 C 51.414062 55.1875 51.097656 54.828125 51.3125 54.566406 C 51.527344 54.304688 51.945312 54.542969 51.824219 54.859375 C 51.707031 55.179688 51.234375 55.085938 51.246094 54.746094 C 51.253906 54.40625 51.730469 54.34375 51.832031 54.667969 C 51.929688 54.992188 51.5 55.207031 51.300781 54.929688 C 51.101562 54.65625 51.441406 54.316406 51.71875 54.511719 C 51.996094 54.707031 51.785156 55.136719 51.460938 55.042969 C 51.136719 54.949219 51.191406 54.46875 51.53125 54.457031 C 51.871094 54.441406 51.96875 54.910156 51.65625 55.035156 C 51.339844 55.160156 51.09375 54.746094 51.351562 54.527344 C 51.609375 54.308594 51.976562 54.617188 51.800781 54.910156 C 51.628906 55.199219 51.179688 55.023438 51.25 54.691406 C 51.324219 54.359375 51.804688 54.382812 51.84375 54.71875 C 51.882812 55.054688 51.421875 55.191406 51.273438 54.886719 C 51.128906 54.578125 51.519531 54.304688 51.757812 54.542969 C 51.996094 54.785156 51.714844 55.175781 51.410156 55.023438 C 51.109375 54.871094 51.25 54.414062 51.585938 54.457031 C 51.921875 54.503906 51.933594 54.984375 51.601562 55.050781 C 51.269531 55.113281 51.101562 54.664062 51.394531 54.496094 C 51.6875 54.324219 51.996094 54.699219 51.769531 54.953125 C 51.546875 55.207031 51.140625 54.953125 51.269531 54.640625 C 51.398438 54.328125 51.863281 54.433594 51.84375 54.773438 C 51.824219 55.113281 51.34375 55.160156 51.253906 54.835938 C 51.164062 54.507812 51.601562 54.304688 51.792969 54.585938 C 51.984375 54.867188 51.636719 55.199219 51.363281 54.996094 C 51.09375 54.792969 51.316406 54.363281 51.636719 54.46875 C 51.960938 54.574219 51.886719 55.050781 51.550781 55.054688 C 51.210938 55.058594 51.125 54.585938 51.445312 54.472656 C 51.761719 54.359375 51.996094 54.777344 51.730469 54.988281 C 51.464844 55.199219 51.109375 54.878906 51.292969 54.59375 C 51.476562 54.308594 51.917969 54.496094 51.835938 54.828125 C 51.753906 55.15625 51.277344 55.121094 51.246094 54.78125 C 51.214844 54.445312 51.683594 54.324219 51.820312 54.632812 C 51.957031 54.945312 51.554688 55.207031 51.324219 54.960938 C 51.09375 54.710938 51.390625 54.332031 51.6875 54.492188 C 51.984375 54.652344 51.828125 55.105469 51.496094 55.050781 C 51.160156 54.996094 51.160156 54.515625 51.496094 54.460938 C 51.832031 54.402344 51.984375 54.859375 51.6875 55.019531 C 51.386719 55.179688 51.09375 54.800781 51.324219 54.550781 C 51.554688 54.300781 51.957031 54.566406 51.820312 54.878906 C 51.679688 55.1875 51.214844 55.066406 51.246094 54.726562 C 51.277344 54.390625 51.757812 54.355469 51.835938 54.683594 C 51.917969 55.015625 51.472656 55.203125 51.292969 54.917969 C 51.109375 54.628906 51.46875 54.308594 51.734375 54.519531 C 51.996094 54.734375 51.761719 55.152344 51.445312 55.039062 C 51.125 54.921875 51.210938 54.449219 51.550781 54.457031 C 51.890625 54.460938 51.960938 54.9375 51.636719 55.039062 C 51.316406 55.144531 51.09375 54.71875 51.367188 54.515625 C 51.636719 54.3125 51.984375 54.644531 51.792969 54.925781 C 51.601562 55.203125 51.164062 55 51.257812 54.675781 C 51.347656 54.347656 51.824219 54.398438 51.84375 54.738281 C 51.863281 55.078125 51.394531 55.183594 51.265625 54.867188 C 51.140625 54.554688 51.546875 54.300781 51.769531 54.558594 C 51.992188 54.8125 51.6875 55.183594 51.394531 55.015625 C 51.101562 54.84375 51.269531 54.394531 51.605469 54.460938 C 51.9375 54.527344 51.921875 55.007812 51.585938 55.050781 C 51.25 55.097656 51.109375 54.636719 51.410156 54.488281 C 51.714844 54.335938 51.996094 54.726562 51.757812 54.964844 C 51.519531 55.207031 51.128906 54.929688 51.273438 54.625 C 51.421875 54.320312 51.882812 54.457031 51.84375 54.792969 C 51.800781 55.128906 51.320312 55.148438 51.25 54.816406 C 51.183594 54.484375 51.628906 54.308594 51.804688 54.601562 C 51.976562 54.894531 51.609375 55.203125 51.351562 54.984375 C 51.09375 54.765625 51.339844 54.351562 51.65625 54.476562 C 51.96875 54.601562 51.871094 55.070312 51.53125 55.054688 C 51.191406 55.039062 51.136719 54.5625 51.460938 54.46875 C 51.789062 54.371094 51.996094 54.804688 51.71875 55 C 51.441406 55.195312 51.101562 54.851562 51.304688 54.578125 C 51.503906 54.304688 51.933594 54.519531 51.832031 54.84375 C 51.730469 55.167969 51.253906 55.101562 51.246094 54.761719 C 51.234375 54.425781 51.707031 54.332031 51.828125 54.652344 C 51.945312 54.96875 51.527344 55.207031 51.3125 54.945312 C 51.097656 54.683594 51.414062 54.320312 51.703125 54.5 C 51.992188 54.679688 51.808594 55.125 51.476562 55.046875 C 51.148438 54.972656 51.175781 54.492188 51.515625 54.457031 C 51.851562 54.421875 51.980469 54.886719 51.671875 55.027344 C 51.363281 55.167969 51.09375 54.773438 51.339844 54.539062 C 51.582031 54.304688 51.96875 54.59375 51.8125 54.894531 C 51.652344 55.195312 51.195312 55.046875 51.25 54.710938 C 51.300781 54.375 51.78125 54.367188 51.839844 54.703125 C 51.898438 55.035156 51.445312 55.195312 51.28125 54.902344 C 51.117188 54.605469 51.496094 54.304688 51.746094 54.53125 C 51.996094 54.761719 51.738281 55.164062 51.425781 55.03125 C 51.113281 54.898438 51.230469 54.429688 51.566406 54.457031 C 51.90625 54.480469 51.949219 54.960938 51.621094 55.046875 C 51.292969 55.128906 51.097656 54.691406 51.378906 54.503906 C 51.664062 54.320312 51.988281 54.671875 51.78125 54.9375 C 51.574219 55.207031 51.152344 54.976562 51.261719 54.65625 C 51.371094 54.335938 51.847656 54.417969 51.84375 54.757812 C 51.84375 55.09375 51.371094 55.171875 51.261719 54.851562 C 51.152344 54.53125 51.578125 54.304688 51.78125 54.574219 C 51.988281 54.839844 51.660156 55.191406 51.378906 55.003906 C 51.097656 54.816406 51.292969 54.378906 51.621094 54.464844 C 51.949219 54.550781 51.90625 55.03125 51.566406 55.054688 C 51.226562 55.078125 51.117188 54.613281 51.429688 54.480469 C 51.738281 54.347656 51.996094 54.753906 51.746094 54.980469 C 51.492188 55.203125 51.117188 54.902344 51.285156 54.609375 C 51.449219 54.3125 51.902344 54.476562 51.839844 54.808594 C 51.777344 55.144531 51.296875 55.132812 51.25 54.800781 C 51.199219 54.464844 51.65625 54.316406 51.8125 54.617188 C 51.96875 54.917969 51.582031 55.207031 51.335938 54.972656 C 51.09375 54.738281 51.363281 54.339844 51.671875 54.484375 C 51.980469 54.628906 51.851562 55.089844 51.511719 55.054688 C 51.175781 55.015625 51.148438 54.535156 51.480469 54.460938 C 51.808594 54.386719 51.992188 54.832031 51.703125 55.011719 C 51.414062 55.1875 51.097656 54.824219 51.3125 54.5625 C 51.53125 54.304688 51.945312 54.542969 51.824219 54.863281 C 51.707031 55.179688 51.234375 55.085938 51.246094 54.746094 C 51.257812 54.40625 51.734375 54.34375 51.832031 54.667969 C 51.929688 54.992188 51.5 55.207031 51.300781 54.929688 C 51.101562 54.65625 51.441406 54.3125 51.71875 54.511719 C 51.996094 54.707031 51.785156 55.140625 51.460938 55.042969 "/>
<path style=" stroke:none;fill-rule:nonzero;fill:rgb(6%,30%,55%);fill-opacity:1;" d="M 45.953125 52.9375 L 46.253906 52.9375 C 46.253906 53.277344 45.78125 53.355469 45.671875 53.035156 C 45.5625 52.714844 45.984375 52.488281 46.191406 52.753906 C 46.398438 53.023438 46.074219 53.375 45.789062 53.1875 C 45.507812 53.003906 45.703125 52.5625 46.03125 52.648438 C 46.359375 52.734375 46.316406 53.210938 45.976562 53.238281 C 45.640625 53.261719 45.523438 52.796875 45.835938 52.664062 C 46.148438 52.53125 46.40625 52.933594 46.15625 53.160156 C 45.902344 53.390625 45.527344 53.089844 45.691406 52.792969 C 45.859375 52.496094 46.3125 52.660156 46.25 52.992188 C 46.191406 53.324219 45.707031 53.320312 45.660156 52.984375 C 45.609375 52.648438 46.066406 52.5 46.222656 52.800781 C 46.378906 53.101562 45.992188 53.390625 45.746094 53.15625 C 45.503906 52.921875 45.773438 52.523438 46.082031 52.667969 C 46.390625 52.808594 46.261719 53.273438 45.921875 53.238281 C 45.585938 53.203125 45.558594 52.722656 45.886719 52.644531 C 46.21875 52.570312 46.402344 53.015625 46.113281 53.195312 C 45.824219 53.371094 45.507812 53.011719 45.722656 52.75 C 45.9375 52.488281 46.355469 52.726562 46.234375 53.042969 C 46.117188 53.363281 45.644531 53.269531 45.65625 52.929688 C 45.664062 52.589844 46.140625 52.527344 46.242188 52.851562 C 46.339844 53.175781 45.910156 53.390625 45.710938 53.113281 C 45.511719 52.839844 45.851562 52.5 46.128906 52.695312 C 46.40625 52.890625 46.195312 53.320312 45.871094 53.226562 C 45.546875 53.132812 45.601562 52.652344 45.941406 52.640625 C 46.28125 52.625 46.378906 53.09375 46.0625 53.21875 C 45.75 53.34375 45.503906 52.929688 45.761719 52.710938 C 46.019531 52.492188 46.386719 52.800781 46.210938 53.09375 C 46.039062 53.382812 45.589844 53.207031 45.660156 52.875 C 45.730469 52.542969 46.210938 52.566406 46.253906 52.902344 C 46.292969 53.238281 45.832031 53.375 45.683594 53.070312 C 45.539062 52.761719 45.929688 52.488281 46.167969 52.730469 C 46.40625 52.96875 46.125 53.359375 45.820312 53.207031 C 45.515625 53.054688 45.660156 52.597656 45.996094 52.640625 C 46.332031 52.6875 46.34375 53.167969 46.011719 53.234375 C 45.679688 53.296875 45.511719 52.847656 45.804688 52.679688 C 46.097656 52.507812 46.402344 52.882812 46.179688 53.136719 C 45.957031 53.390625 45.546875 53.136719 45.675781 52.824219 C 45.804688 52.511719 46.273438 52.617188 46.253906 52.957031 C 46.234375 53.296875 45.753906 53.34375 45.664062 53.019531 C 45.574219 52.691406 46.011719 52.488281 46.203125 52.769531 C 46.394531 53.050781 46.046875 53.382812 45.773438 53.179688 C 45.503906 52.976562 45.726562 52.546875 46.046875 52.652344 C 46.371094 52.757812 46.296875 53.234375 45.960938 53.238281 C 45.621094 53.242188 45.535156 52.769531 45.855469 52.65625 C 46.171875 52.542969 46.40625 52.960938 46.140625 53.171875 C 45.875 53.386719 45.519531 53.0625 45.703125 52.777344 C 45.886719 52.492188 46.328125 52.679688 46.246094 53.011719 C 46.164062 53.339844 45.6875 53.304688 45.65625 52.964844 C 45.625 52.628906 46.089844 52.507812 46.230469 52.816406 C 46.367188 53.128906 45.964844 53.390625 45.734375 53.144531 C 45.503906 52.894531 45.800781 52.515625 46.097656 52.675781 C 46.394531 52.835938 46.238281 53.289062 45.90625 53.234375 C 45.570312 53.179688 45.570312 52.699219 45.90625 52.644531 C 46.242188 52.585938 46.394531 53.042969 46.097656 53.203125 C 45.796875 53.363281 45.503906 52.984375 45.734375 52.734375 C 45.964844 52.488281 46.367188 52.75 46.230469 53.0625 C 46.089844 53.371094 45.625 53.25 45.65625 52.910156 C 45.6875 52.574219 46.167969 52.539062 46.246094 52.867188 C 46.328125 53.199219 45.882812 53.386719 45.703125 53.101562 C 45.519531 52.8125 45.878906 52.492188 46.140625 52.703125 C 46.40625 52.917969 46.171875 53.335938 45.851562 53.222656 C 45.535156 53.105469 45.621094 52.632812 45.960938 52.640625 C 46.300781 52.644531 46.371094 53.121094 46.046875 53.222656 C 45.722656 53.328125 45.503906 52.902344 45.773438 52.699219 C 46.046875 52.496094 46.394531 52.828125 46.203125 53.109375 C 46.011719 53.386719 45.574219 53.183594 45.664062 52.859375 C 45.757812 52.53125 46.234375 52.582031 46.253906 52.921875 C 46.273438 53.261719 45.804688 53.367188 45.675781 53.050781 C 45.550781 52.738281 45.957031 52.484375 46.179688 52.742188 C 46.402344 52.996094 46.097656 53.367188 45.804688 53.199219 C 45.511719 53.027344 45.679688 52.578125 46.011719 52.644531 C 46.347656 52.710938 46.332031 53.191406 45.996094 53.234375 C 45.660156 53.28125 45.519531 52.820312 45.820312 52.671875 C 46.125 52.519531 46.40625 52.910156 46.167969 53.148438 C 45.929688 53.390625 45.539062 53.113281 45.683594 52.808594 C 45.832031 52.503906 46.292969 52.640625 46.253906 52.976562 C 46.210938 53.3125 45.730469 53.332031 45.660156 53 C 45.589844 52.667969 46.039062 52.496094 46.210938 52.785156 C 46.386719 53.078125 46.019531 53.386719 45.761719 53.167969 C 45.503906 52.949219 45.75 52.535156 46.066406 52.660156 C 46.378906 52.785156 46.28125 53.253906 45.941406 53.238281 C 45.601562 53.222656 45.546875 52.746094 45.871094 52.652344 C 46.195312 52.554688 46.40625 52.988281 46.128906 53.183594 C 45.847656 53.378906 45.511719 53.035156 45.710938 52.761719 C 45.914062 52.488281 46.34375 52.703125 46.242188 53.027344 C 46.140625 53.351562 45.664062 53.285156 45.65625 52.945312 C 45.644531 52.609375 46.117188 52.515625 46.234375 52.835938 C 46.355469 53.152344 45.9375 53.390625 45.722656 53.128906 C 45.507812 52.867188 45.824219 52.503906 46.113281 52.683594 C 46.402344 52.863281 46.21875 53.308594 45.886719 53.230469 C 45.558594 53.15625 45.585938 52.675781 45.925781 52.640625 C 46.261719 52.605469 46.386719 53.070312 46.082031 53.210938 C 45.773438 53.351562 45.503906 52.957031 45.75 52.722656 C 45.992188 52.488281 46.378906 52.777344 46.222656 53.078125 C 46.0625 53.378906 45.605469 53.230469 45.660156 52.894531 C 45.710938 52.558594 46.191406 52.550781 46.25 52.886719 C 46.308594 53.21875 45.855469 53.382812 45.691406 53.085938 C 45.527344 52.789062 45.90625 52.488281 46.15625 52.714844 C 46.40625 52.945312 46.148438 53.347656 45.835938 53.214844 C 45.523438 53.082031 45.640625 52.613281 45.976562 52.640625 C 46.316406 52.667969 46.359375 53.144531 46.03125 53.230469 C 45.703125 53.3125 45.507812 52.875 45.789062 52.6875 C 46.074219 52.503906 46.398438 52.855469 46.191406 53.125 C 45.984375 53.390625 45.5625 53.160156 45.671875 52.839844 C 45.78125 52.519531 46.257812 52.601562 46.253906 52.941406 C 46.253906 53.277344 45.78125 53.355469 45.671875 53.035156 C 45.5625 52.714844 45.984375 52.488281 46.191406 52.757812 C 46.398438 53.023438 46.070312 53.375 45.789062 53.1875 C 45.507812 53 45.703125 52.5625 46.03125 52.648438 C 46.359375 52.734375 46.316406 53.214844 45.976562 53.238281 C 45.636719 53.261719 45.527344 52.796875 45.835938 52.664062 C 46.148438 52.53125 46.40625 52.9375 46.15625 53.164062 C 45.902344 53.386719 45.527344 53.085938 45.691406 52.792969 C 45.859375 52.496094 46.3125 52.660156 46.25 52.992188 C 46.1875 53.328125 45.707031 53.316406 45.65625 52.984375 C 45.609375 52.648438 46.066406 52.5 46.222656 52.800781 C 46.375 53.101562 45.992188 53.390625 45.746094 53.15625 C 45.503906 52.921875 45.773438 52.523438 46.082031 52.667969 C 46.390625 52.8125 46.257812 53.273438 45.921875 53.238281 C 45.585938 53.199219 45.558594 52.71875 45.890625 52.644531 C 46.21875 52.570312 46.402344 53.015625 46.113281 53.195312 C 45.824219 53.371094 45.507812 53.007812 45.722656 52.746094 C 45.941406 52.488281 46.355469 52.726562 46.234375 53.046875 C 46.117188 53.363281 45.644531 53.269531 45.65625 52.929688 C 45.667969 52.589844 46.144531 52.527344 46.242188 52.851562 C 46.339844 53.175781 45.910156 53.390625 45.710938 53.113281 C 45.511719 52.839844 45.851562 52.5 46.128906 52.695312 C 46.40625 52.890625 46.195312 53.324219 45.871094 53.226562 "/>
<path style=" stroke:none;fill-rule:nonzero;fill:rgb(6%,30%,55%);fill-opacity:1;" d="M 45.953125 47.0625 L 46.253906 47.0625 C 46.253906 47.398438 45.78125 47.480469 45.671875 47.15625 C 45.5625 46.835938 45.984375 46.609375 46.191406 46.878906 C 46.398438 47.144531 46.074219 47.5 45.789062 47.3125 C 45.507812 47.125 45.703125 46.683594 46.03125 46.769531 C 46.359375 46.855469 46.316406 47.335938 45.976562 47.359375 C 45.640625 47.386719 45.523438 46.917969 45.835938 46.785156 C 46.148438 46.652344 46.40625 47.058594 46.15625 47.285156 C 45.902344 47.511719 45.527344 47.210938 45.691406 46.914062 C 45.859375 46.617188 46.3125 46.78125 46.25 47.113281 C 46.191406 47.449219 45.707031 47.441406 45.660156 47.105469 C 45.609375 46.769531 46.066406 46.621094 46.222656 46.921875 C 46.378906 47.222656 45.992188 47.511719 45.746094 47.277344 C 45.503906 47.042969 45.773438 46.644531 46.082031 46.789062 C 46.390625 46.929688 46.261719 47.394531 45.921875 47.359375 C 45.585938 47.324219 45.558594 46.84375 45.886719 46.769531 C 46.21875 46.691406 46.402344 47.136719 46.113281 47.316406 C 45.824219 47.496094 45.507812 47.132812 45.722656 46.871094 C 45.9375 46.609375 46.355469 46.847656 46.234375 47.167969 C 46.117188 47.484375 45.644531 47.390625 45.65625 47.050781 C 45.664062 46.714844 46.140625 46.648438 46.242188 46.972656 C 46.339844 47.296875 45.910156 47.511719 45.710938 47.238281 C 45.511719 46.960938 45.851562 46.621094 46.128906 46.816406 C 46.40625 47.011719 46.195312 47.445312 45.871094 47.347656 C 45.546875 47.253906 45.601562 46.777344 45.941406 46.761719 C 46.28125 46.746094 46.378906 47.214844 46.0625 47.339844 C 45.75 47.464844 45.503906 47.050781 45.761719 46.832031 C 46.019531 46.613281 46.386719 46.925781 46.210938 47.214844 C 46.039062 47.507812 45.589844 47.328125 45.660156 47 C 45.730469 46.667969 46.210938 46.6875 46.253906 47.027344 C 46.292969 47.363281 45.832031 47.496094 45.683594 47.191406 C 45.539062 46.886719 45.929688 46.609375 46.167969 46.851562 C 46.40625 47.09375 46.125 47.480469 45.820312 47.328125 C 45.515625 47.175781 45.660156 46.71875 45.996094 46.765625 C 46.332031 46.808594 46.34375 47.289062 46.011719 47.355469 C 45.679688 47.421875 45.511719 46.96875 45.804688 46.800781 C 46.097656 46.632812 46.402344 47.003906 46.179688 47.257812 C 45.957031 47.515625 45.546875 47.261719 45.675781 46.945312 C 45.804688 46.632812 46.273438 46.742188 46.253906 47.078125 C 46.234375 47.417969 45.753906 47.46875 45.664062 47.140625 C 45.574219 46.8125 46.011719 46.613281 46.203125 46.890625 C 46.394531 47.171875 46.046875 47.503906 45.773438 47.300781 C 45.503906 47.097656 45.726562 46.671875 46.046875 46.777344 C 46.371094 46.882812 46.296875 47.355469 45.960938 47.359375 C 45.621094 47.367188 45.535156 46.890625 45.855469 46.777344 C 46.171875 46.664062 46.40625 47.085938 46.140625 47.296875 C 45.875 47.507812 45.519531 47.183594 45.703125 46.898438 C 45.886719 46.613281 46.328125 46.804688 46.246094 47.132812 C 46.164062 47.460938 45.6875 47.425781 45.65625 47.085938 C 45.625 46.75 46.089844 46.628906 46.230469 46.9375 C 46.367188 47.25 45.964844 47.515625 45.734375 47.265625 C 45.503906 47.015625 45.800781 46.636719 46.097656 46.796875 C 46.394531 46.957031 46.238281 47.414062 45.90625 47.355469 C 45.570312 47.300781 45.570312 46.820312 45.90625 46.765625 C 46.242188 46.710938 46.394531 47.164062 46.097656 47.324219 C 45.796875 47.484375 45.503906 47.105469 45.734375 46.855469 C 45.964844 46.609375 46.367188 46.875 46.230469 47.183594 C 46.089844 47.492188 45.625 47.371094 45.65625 47.035156 C 45.6875 46.695312 46.167969 46.660156 46.246094 46.992188 C 46.328125 47.320312 45.882812 47.507812 45.703125 47.222656 C 45.519531 46.9375 45.878906 46.613281 46.140625 46.828125 C 46.40625 47.039062 46.171875 47.457031 45.851562 47.34375 C 45.535156 47.226562 45.621094 46.753906 45.960938 46.761719 C 46.300781 46.765625 46.371094 47.242188 46.046875 47.347656 C 45.722656 47.449219 45.503906 47.023438 45.773438 46.820312 C 46.046875 46.617188 46.394531 46.949219 46.203125 47.230469 C 46.011719 47.511719 45.574219 47.308594 45.664062 46.980469 C 45.757812 46.652344 46.234375 46.707031 46.253906 47.042969 C 46.273438 47.382812 45.804688 47.488281 45.675781 47.175781 C 45.550781 46.859375 45.957031 46.609375 46.179688 46.863281 C 46.402344 47.121094 46.097656 47.492188 45.804688 47.320312 C 45.511719 47.152344 45.679688 46.699219 46.011719 46.765625 C 46.347656 46.832031 46.332031 47.3125 45.996094 47.359375 C 45.660156 47.402344 45.519531 46.945312 45.820312 46.792969 C 46.125 46.640625 46.40625 47.03125 46.167969 47.273438 C 45.929688 47.511719 45.539062 47.234375 45.683594 46.929688 C 45.832031 46.625 46.292969 46.761719 46.253906 47.097656 C 46.210938 47.433594 45.730469 47.453125 45.660156 47.121094 C 45.589844 46.792969 46.039062 46.617188 46.210938 46.90625 C 46.386719 47.199219 46.019531 47.507812 45.761719 47.289062 C 45.503906 47.070312 45.75 46.65625 46.066406 46.78125 C 46.378906 46.90625 46.28125 47.375 45.941406 47.359375 C 45.601562 47.34375 45.546875 46.867188 45.871094 46.773438 C 46.195312 46.679688 46.40625 47.113281 46.128906 47.308594 C 45.847656 47.5 45.511719 47.15625 45.710938 46.882812 C 45.914062 46.609375 46.34375 46.828125 46.242188 47.148438 C 46.140625 47.472656 45.664062 47.410156 45.65625 47.070312 C 45.644531 46.730469 46.117188 46.636719 46.234375 46.957031 C 46.355469 47.273438 45.9375 47.511719 45.722656 47.25 C 45.507812 46.988281 45.824219 46.628906 46.113281 46.804688 C 46.402344 46.984375 46.21875 47.429688 45.886719 47.351562 C 45.558594 47.277344 45.585938 46.796875 45.925781 46.761719 C 46.261719 46.726562 46.386719 47.191406 46.082031 47.332031 C 45.773438 47.476562 45.503906 47.078125 45.75 46.84375 C 45.992188 46.609375 46.378906 46.898438 46.222656 47.199219 C 46.0625 47.5 45.605469 47.351562 45.660156 47.015625 C 45.710938 46.679688 46.191406 46.675781 46.25 47.007812 C 46.308594 47.34375 45.855469 47.503906 45.691406 47.207031 C 45.527344 46.910156 45.90625 46.609375 46.15625 46.839844 C 46.40625 47.066406 46.148438 47.46875 45.835938 47.335938 C 45.523438 47.203125 45.640625 46.734375 45.976562 46.761719 C 46.316406 46.789062 46.359375 47.265625 46.03125 47.351562 C 45.703125 47.4375 45.507812 46.996094 45.789062 46.808594 C 46.074219 46.625 46.398438 46.976562 46.191406 47.246094 C 45.984375 47.511719 45.5625 47.285156 45.671875 46.964844 C 45.78125 46.644531 46.257812 46.722656 46.253906 47.0625 C 46.253906 47.402344 45.78125 47.476562 45.671875 47.15625 C 45.5625 46.835938 45.984375 46.609375 46.191406 46.878906 C 46.398438 47.148438 46.070312 47.5 45.789062 47.3125 C 45.507812 47.125 45.703125 46.683594 46.03125 46.769531 C 46.359375 46.855469 46.316406 47.335938 45.976562 47.359375 C 45.636719 47.382812 45.527344 46.917969 45.835938 46.785156 C 46.148438 46.652344 46.40625 47.058594 46.15625 47.285156 C 45.902344 47.511719 45.527344 47.210938 45.691406 46.914062 C 45.859375 46.617188 46.3125 46.78125 46.25 47.117188 C 46.1875 47.449219 45.707031 47.441406 45.65625 47.105469 C 45.609375 46.769531 46.066406 46.621094 46.222656 46.921875 C 46.375 47.226562 45.992188 47.511719 45.746094 47.277344 C 45.503906 47.042969 45.773438 46.644531 46.082031 46.789062 C 46.390625 46.933594 46.257812 47.394531 45.921875 47.359375 C 45.585938 47.324219 45.558594 46.84375 45.890625 46.769531 C 46.21875 46.695312 46.402344 47.140625 46.113281 47.316406 C 45.824219 47.492188 45.507812 47.132812 45.722656 46.871094 C 45.941406 46.609375 46.355469 46.851562 46.234375 47.167969 C 46.117188 47.484375 45.644531 47.390625 45.65625 47.050781 C 45.667969 46.710938 46.144531 46.648438 46.242188 46.972656 C 46.339844 47.296875 45.910156 47.511719 45.710938 47.238281 C 45.511719 46.960938 45.851562 46.621094 46.128906 46.816406 C 46.40625 47.011719 46.195312 47.445312 45.871094 47.347656 "/>
<path style=" stroke:none;fill-rule:nonzero;fill:rgb(6%,30%,55%);fill-opacity:1;" d="M 51.546875 45.246094 L 51.84375 45.246094 C 51.84375 45.582031 51.371094 45.664062 51.261719 45.339844 C 51.152344 45.019531 51.574219 44.792969 51.78125 45.0625 C 51.988281 45.328125 51.664062 45.683594 51.378906 45.496094 C 51.097656 45.308594 51.292969 44.867188 51.621094 44.953125 C 51.949219 45.039062 51.90625 45.519531 51.566406 45.542969 C 51.230469 45.570312 51.117188 45.101562 51.425781 44.96875 C 51.738281 44.835938 51.996094 45.242188 51.746094 45.46875 C 51.492188 45.695312 51.117188 45.394531 51.28125 45.097656 C 51.449219 44.800781 51.902344 44.964844 51.839844 45.296875 C 51.78125 45.632812 51.300781 45.625 51.25 45.289062 C 51.199219 44.953125 51.65625 44.804688 51.8125 45.105469 C 51.96875 45.40625 51.582031 45.695312 51.335938 45.460938 C 51.09375 45.226562 51.363281 44.828125 51.671875 44.972656 C 51.980469 45.113281 51.851562 45.578125 51.511719 45.542969 C 51.175781 45.507812 51.148438 45.027344 51.476562 44.953125 C 51.808594 44.875 51.992188 45.320312 51.703125 45.5 C 51.414062 45.679688 51.097656 45.316406 51.3125 45.054688 C 51.527344 44.792969 51.945312 45.03125 51.824219 45.351562 C 51.707031 45.667969 51.234375 45.574219 51.246094 45.234375 C 51.253906 44.898438 51.730469 44.832031 51.832031 45.15625 C 51.929688 45.480469 51.5 45.695312 51.300781 45.421875 C 51.101562 45.148438 51.441406 44.804688 51.71875 45 C 51.996094 45.195312 51.785156 45.628906 51.460938 45.53125 C 51.136719 45.4375 51.191406 44.960938 51.53125 44.945312 C 51.871094 44.929688 51.96875 45.398438 51.65625 45.523438 C 51.339844 45.648438 51.09375 45.234375 51.351562 45.015625 C 51.609375 44.796875 51.976562 45.109375 51.800781 45.398438 C 51.628906 45.691406 51.179688 45.515625 51.25 45.183594 C 51.324219 44.851562 51.804688 44.871094 51.84375 45.210938 C 51.882812 45.546875 51.421875 45.679688 51.273438 45.375 C 51.128906 45.070312 51.519531 44.792969 51.757812 45.035156 C 51.996094 45.277344 51.714844 45.664062 51.410156 45.511719 C 51.109375 45.359375 51.25 44.902344 51.585938 44.949219 C 51.921875 44.992188 51.933594 45.472656 51.601562 45.539062 C 51.269531 45.605469 51.101562 45.152344 51.394531 44.984375 C 51.6875 44.816406 51.996094 45.1875 51.769531 45.441406 C 51.546875 45.699219 51.140625 45.445312 51.269531 45.128906 C 51.398438 44.816406 51.863281 44.925781 51.84375 45.261719 C 51.824219 45.601562 51.34375 45.652344 51.253906 45.324219 C 51.164062 44.996094 51.601562 44.796875 51.792969 45.074219 C 51.984375 45.355469 51.636719 45.6875 51.363281 45.484375 C 51.09375 45.28125 51.316406 44.855469 51.636719 44.960938 C 51.960938 45.066406 51.886719 45.539062 51.550781 45.542969 C 51.210938 45.550781 51.125 45.078125 51.445312 44.960938 C 51.761719 44.847656 51.996094 45.269531 51.730469 45.480469 C 51.464844 45.691406 51.109375 45.367188 51.292969 45.082031 C 51.476562 44.796875 51.917969 44.988281 51.835938 45.316406 C 51.753906 45.644531 51.277344 45.609375 51.246094 45.269531 C 51.214844 44.933594 51.683594 44.8125 51.820312 45.125 C 51.957031 45.433594 51.554688 45.699219 51.324219 45.449219 C 51.09375 45.199219 51.390625 44.820312 51.6875 44.980469 C 51.984375 45.140625 51.828125 45.597656 51.496094 45.539062 C 51.160156 45.484375 51.160156 45.003906 51.496094 44.949219 C 51.832031 44.894531 51.984375 45.347656 51.6875 45.507812 C 51.386719 45.667969 51.09375 45.289062 51.324219 45.039062 C 51.554688 44.792969 51.957031 45.058594 51.820312 45.367188 C 51.679688 45.675781 51.214844 45.554688 51.246094 45.21875 C 51.277344 44.878906 51.757812 44.84375 51.835938 45.175781 C 51.917969 45.503906 51.472656 45.691406 51.292969 45.40625 C 51.109375 45.121094 51.46875 44.796875 51.734375 45.011719 C 51.996094 45.222656 51.761719 45.640625 51.445312 45.527344 C 51.125 45.410156 51.210938 44.9375 51.550781 44.945312 C 51.890625 44.949219 51.960938 45.425781 51.636719 45.53125 C 51.316406 45.632812 51.09375 45.207031 51.367188 45.003906 C 51.636719 44.800781 51.984375 45.132812 51.792969 45.414062 C 51.601562 45.695312 51.164062 45.492188 51.257812 45.164062 C 51.347656 44.835938 51.824219 44.890625 51.84375 45.226562 C 51.863281 45.566406 51.394531 45.671875 51.265625 45.359375 C 51.140625 45.042969 51.546875 44.792969 51.769531 45.046875 C 51.992188 45.304688 51.6875 45.675781 51.394531 45.503906 C 51.101562 45.335938 51.269531 44.882812 51.605469 44.949219 C 51.9375 45.015625 51.921875 45.496094 51.585938 45.542969 C 51.25 45.585938 51.109375 45.128906 51.410156 44.976562 C 51.714844 44.824219 51.996094 45.214844 51.757812 45.457031 C 51.519531 45.695312 51.128906 45.417969 51.273438 45.113281 C 51.421875 44.808594 51.882812 44.945312 51.84375 45.28125 C 51.800781 45.617188 51.320312 45.636719 51.25 45.304688 C 51.183594 44.976562 51.628906 44.800781 51.804688 45.089844 C 51.976562 45.382812 51.609375 45.691406 51.351562 45.472656 C 51.09375 45.253906 51.339844 44.839844 51.65625 44.964844 C 51.96875 45.089844 51.871094 45.558594 51.53125 45.542969 C 51.191406 45.527344 51.136719 45.050781 51.460938 44.957031 C 51.789062 44.863281 51.996094 45.296875 51.71875 45.492188 C 51.441406 45.683594 51.101562 45.339844 51.304688 45.066406 C 51.503906 44.792969 51.933594 45.011719 51.832031 45.332031 C 51.730469 45.65625 51.253906 45.59375 51.246094 45.253906 C 51.234375 44.914062 51.707031 44.820312 51.828125 45.140625 C 51.945312 45.457031 51.527344 45.695312 51.3125 45.433594 C 51.097656 45.171875 51.414062 44.8125 51.703125 44.988281 C 51.992188 45.167969 51.808594 45.613281 51.476562 45.535156 C 51.148438 45.460938 51.175781 44.980469 51.515625 44.945312 C 51.851562 44.910156 51.980469 45.375 51.671875 45.515625 C 51.363281 45.660156 51.09375 45.261719 51.339844 45.027344 C 51.582031 44.792969 51.96875 45.082031 51.8125 45.382812 C 51.652344 45.683594 51.195312 45.535156 51.25 45.199219 C 51.300781 44.863281 51.78125 44.859375 51.839844 45.191406 C 51.898438 45.527344 51.445312 45.6875 51.28125 45.390625 C 51.117188 45.09375 51.496094 44.792969 51.746094 45.023438 C 51.996094 45.25 51.738281 45.65625 51.425781 45.519531 C 51.113281 45.386719 51.230469 44.917969 51.566406 44.945312 C 51.90625 44.972656 51.949219 45.449219 51.621094 45.535156 C 51.292969 45.621094 51.097656 45.179688 51.378906 44.992188 C 51.664062 44.808594 51.988281 45.160156 51.78125 45.429688 C 51.574219 45.695312 51.152344 45.46875 51.261719 45.148438 C 51.371094 44.828125 51.847656 44.90625 51.84375 45.246094 C 51.84375 45.585938 51.371094 45.660156 51.261719 45.339844 C 51.152344 45.019531 51.578125 44.792969 51.78125 45.0625 C 51.988281 45.332031 51.660156 45.683594 51.378906 45.496094 C 51.097656 45.308594 51.292969 44.867188 51.621094 44.953125 C 51.949219 45.039062 51.90625 45.519531 51.566406 45.542969 C 51.226562 45.566406 51.117188 45.101562 51.429688 44.96875 C 51.738281 44.835938 51.996094 45.242188 51.746094 45.46875 C 51.492188 45.695312 51.117188 45.394531 51.285156 45.097656 C 51.449219 44.800781 51.902344 44.964844 51.839844 45.300781 C 51.777344 45.632812 51.296875 45.625 51.25 45.289062 C 51.199219 44.953125 51.65625 44.804688 51.8125 45.105469 C 51.96875 45.410156 51.582031 45.695312 51.335938 45.460938 C 51.09375 45.226562 51.363281 44.828125 51.671875 44.972656 C 51.980469 45.117188 51.851562 45.578125 51.511719 45.542969 C 51.175781 45.507812 51.148438 45.027344 51.480469 44.953125 C 51.808594 44.878906 51.992188 45.324219 51.703125 45.5 C 51.414062 45.679688 51.097656 45.316406 51.3125 45.054688 C 51.53125 44.792969 51.945312 45.035156 51.824219 45.351562 C 51.707031 45.667969 51.234375 45.574219 51.246094 45.234375 C 51.257812 44.894531 51.734375 44.832031 51.832031 45.15625 C 51.929688 45.480469 51.5 45.695312 51.300781 45.421875 C 51.101562 45.144531 51.441406 44.804688 51.71875 45 C 51.996094 45.195312 51.785156 45.628906 51.460938 45.53125 "/>
</g>
</svg>
